<?xml version="1.0" encoding="utf-8"?>
<!-- Generator: Adobe Illustrator 16.0.0, SVG Export Plug-In . SVG Version: 6.00 Build 0)  -->
<!DOCTYPE svg PUBLIC "-//W3C//DTD SVG 1.1//EN" "http://www.w3.org/Graphics/SVG/1.1/DTD/svg11.dtd">
<svg version="1.1" id="Capa_1" xmlns="http://www.w3.org/2000/svg" xmlns:xlink="http://www.w3.org/1999/xlink" x="0px" y="0px"
	 width="512px" height="512px" viewBox="0 0 512 512" enable-background="new 0 0 512 512" xml:space="preserve">
<path fill="#666666" d="M88.025,511.992h335.958c48.531,0,88.018-39.495,88.018-88.025V88.009C512,39.487,472.514,0,423.982,0
	H88.025C39.487,0,0,39.487,0,88.009v335.965C0,472.506,39.487,511.992,88.025,511.992z M47.641,88.009
	c0-22.264,18.112-40.368,40.384-40.368h335.958c22.265,0,40.376,18.104,40.376,40.368v335.965c0,22.265-18.111,40.384-40.376,40.384
	H88.025c-22.272,0.009-40.384-18.111-40.384-40.376V88.009z"/>
<path fill="#666666" d="M374.336,316.444l-33.682-33.683l-51.389,51.389v-100.87C291,184.75,282.75,173.5,269.25,158
	c-20.46-23.492-73.116-24.125-112.875-24.125v46.375c25.249,0,58.555,1.021,72.125,10.75c13.25,9.5,13.124,40.781,13.124,40.781
	v103.363l-52.39-52.382l-33.682,33.683l75.71,75.702l-0.016,0.023l33.683,33.674l0.023-0.016l0.017,0.016l33.674-33.674
	l-0.016-0.023L374.336,316.444z"/>
</svg>
