<svg xmlns="http://www.w3.org/2000/svg" viewBox="0 0 60 54" width="24" height="22">
	<g id="Layer">
		<path id="Layer" style="fill: #ffffff" d="M25.7,17.77l-3.43,13.54c-1.6,6.39 -3.16,11.02 -4.69,13.89c-1.52,2.87 -3.31,4.99 -5.35,6.37c-2.04,1.38 -4.38,2.06 -7.02,2.06c-1.66,0 -2.88,-0.32 -3.66,-0.95c-0.78,-0.63 -1.17,-1.38 -1.17,-2.24c0,-0.8 0.32,-1.49 0.97,-2.08c0.65,-0.59 1.49,-0.88 2.55,-0.88c0.88,0 1.55,0.23 2.02,0.67c0.47,0.45 0.7,1.02 0.7,1.7c0,0.63 -0.15,1.09 -0.44,1.39c-0.29,0.3 -0.44,0.5 -0.44,0.6l0.15,0.2c0.12,0.1 0.25,0.15 0.41,0.15c0.59,0 1.08,-0.19 1.49,-0.56c1.04,-0.92 1.81,-2.03 2.31,-3.34c0.35,-0.9 1.03,-3.27 2.02,-7.12l5.98,-23.41h-4.07l0.97,-3.43c1.46,0.02 2.53,-0.17 3.19,-0.56c0.66,-0.39 1.37,-1.27 2.11,-2.64c2.15,-3.96 4.41,-6.81 6.8,-8.52c2.38,-1.72 5.04,-2.58 7.97,-2.58c1.88,0 3.24,0.36 4.09,1.08c0.85,0.72 1.27,1.66 1.27,2.81c0,1.02 -0.28,1.82 -0.85,2.42c-0.57,0.6 -1.27,0.89 -2.11,0.89c-0.78,0 -1.43,-0.24 -1.93,-0.73c-0.51,-0.49 -0.76,-1.07 -0.76,-1.76c0,-0.49 0.16,-1.01 0.48,-1.55c0.32,-0.55 0.48,-0.92 0.48,-1.11c0,-0.22 -0.07,-0.39 -0.22,-0.53c-0.15,-0.14 -0.34,-0.21 -0.57,-0.21c-1.15,0 -2.33,0.71 -3.55,2.14c-1.99,2.29 -3.59,5.9 -4.8,10.84h4.25l-1.02,3.43h-4.13z" />
		<path id="Layer" style="fill: #ffffff" d="M31.71,15.28l10.23,-1.76c1.85,2.91 3.16,6.11 3.93,9.61c1.91,-2.83 3.36,-4.81 4.34,-5.95c1.31,-1.52 2.39,-2.52 3.24,-2.97c0.85,-0.46 1.75,-0.69 2.71,-0.69c1.07,0 1.9,0.29 2.48,0.88c0.58,0.59 0.86,1.38 0.86,2.37c0,0.94 -0.29,1.7 -0.86,2.3c-0.58,0.6 -1.29,0.89 -2.15,0.89c-0.62,0 -1.34,-0.11 -2.15,-0.34c-0.81,-0.22 -1.37,-0.34 -1.69,-0.34c-0.82,0 -1.6,0.29 -2.34,0.88c-1.02,0.8 -2.27,2.51 -3.75,5.13c1.66,5.86 2.99,9.43 3.98,10.72c0.59,0.76 1.18,1.14 1.79,1.14c0.51,0 0.95,-0.13 1.32,-0.38c0.57,-0.41 1.44,-1.44 2.61,-3.08l1.05,0.62c-1.72,2.77 -3.4,4.73 -5.04,5.86c-1.25,0.88 -2.48,1.32 -3.69,1.32c-1.25,0 -2.29,-0.28 -3.12,-0.84c-0.83,-0.56 -1.57,-1.47 -2.21,-2.73c-0.65,-1.26 -1.41,-3.28 -2.28,-6.05c-2.28,2.91 -4.08,5.04 -5.38,6.37c-1.3,1.34 -2.38,2.21 -3.24,2.62c-0.86,0.41 -1.78,0.62 -2.75,0.62c-1.02,0 -1.82,-0.29 -2.42,-0.88c-0.6,-0.59 -0.89,-1.35 -0.89,-2.29c0,-1 0.32,-1.82 0.97,-2.46c0.64,-0.64 1.47,-0.97 2.46,-0.97c0.53,0 1.12,0.16 1.79,0.47c0.98,0.47 1.68,0.7 2.11,0.7c0.57,0 1.07,-0.12 1.52,-0.35c0.59,-0.29 1.33,-0.93 2.23,-1.9c0.55,-0.6 1.55,-1.89 3.02,-3.87c-1.87,-6.95 -3.34,-11.11 -4.4,-12.48c-0.66,-0.88 -1.5,-1.32 -2.52,-1.32c-0.53,0 -1.17,0.08 -1.93,0.23z" />
	</g>
</svg>