<?xml version="1.0" encoding="utf-8"?>
<!-- Generator: Adobe Illustrator 16.0.0, SVG Export Plug-In . SVG Version: 6.00 Build 0)  -->
<!DOCTYPE svg PUBLIC "-//W3C//DTD SVG 1.1//EN" "http://www.w3.org/Graphics/SVG/1.1/DTD/svg11.dtd">
<svg version="1.1" id="Layer_1" xmlns="http://www.w3.org/2000/svg" xmlns:xlink="http://www.w3.org/1999/xlink" x="0px" y="0px"
	 width="468.078px" height="502.566px" viewBox="0 0 468.078 502.566" enable-background="new 0 0 468.078 502.566"
	 xml:space="preserve">
<g>
	<path fill="#2B3451" d="M459,285c0,2.209-1.791,4-4,4H11c-2.209,0-4-1.791-4-4V8c0-2.209,1.791-4,4-4h444c2.209,0,4,1.791,4,4V285z
		"/>
</g>
<text transform="matrix(1 0 0 1 114.292 73.3203)" opacity="0.7" fill="#FFFFFF" font-family="'HelveticaNeueLTPro-Lt'" font-size="12">UBL 2.1 Devrede</text>
<text transform="matrix(1 0 0 1 114.292 108.2568)" opacity="0.7"><tspan x="0" y="0" fill="#FFFFFF" font-family="'HelveticaNeueLTPro-Lt'" font-size="12">Gelir İdaresi Başkanlığı  Beyanname Süresini 03.05.2015</tspan><tspan x="0" y="14.4" fill="#FFFFFF" font-family="'HelveticaNeueLTPro-Lt'" font-size="12">tarihine kadar uzattı</tspan></text>
<text transform="matrix(1 0 0 1 114.292 155.8506)" opacity="0.7" fill="#FFFFFF" font-family="'HelveticaNeueLTPro-Lt'" font-size="12">UBL 2.1 Devrede</text>
<text transform="matrix(1 0 0 1 114.292 197.1162)" opacity="0.7" fill="#FFFFFF" font-family="'HelveticaNeueLTPro-Lt'" font-size="12">UBL 2.1 Devrede</text>
<text transform="matrix(1 0 0 1 30.6895 34.4922)" fill="#FFFFFF" font-family="'HelveticaNeueLTPro-Lt'" font-size="16.6931">DUYURULAR</text>
<g opacity="0.2">
	<g>
		<line fill="none" stroke="#E7E7E7" stroke-miterlimit="10" x1="31" y1="90.5" x2="31" y2="90.5"/>
		<line fill="none" stroke="#E7E7E7" stroke-miterlimit="10" stroke-dasharray="1,1" x1="32" y1="90.5" x2="426" y2="90.5"/>
		<line fill="none" stroke="#E7E7E7" stroke-miterlimit="10" x1="426" y1="90.5" x2="427" y2="90.5"/>
	</g>
</g>
<g opacity="0.2">
	<g>
		<line fill="none" stroke="#E7E7E7" stroke-miterlimit="10" x1="31" y1="131.5" x2="31" y2="131.5"/>
		<line fill="none" stroke="#E7E7E7" stroke-miterlimit="10" stroke-dasharray="1,1" x1="32" y1="131.5" x2="426" y2="131.5"/>
		<line fill="none" stroke="#E7E7E7" stroke-miterlimit="10" x1="426" y1="131.5" x2="427" y2="131.5"/>
	</g>
</g>
<g opacity="0.2">
	<g>
		<line fill="none" stroke="#E7E7E7" stroke-miterlimit="10" x1="31" y1="172.5" x2="31" y2="172.5"/>
		<line fill="none" stroke="#E7E7E7" stroke-miterlimit="10" stroke-dasharray="1,1" x1="32" y1="172.5" x2="426" y2="172.5"/>
		<line fill="none" stroke="#E7E7E7" stroke-miterlimit="10" x1="426" y1="172.5" x2="427" y2="172.5"/>
	</g>
</g>
<g opacity="0.2">
	<g>
		<line fill="none" stroke="#E7E7E7" stroke-miterlimit="10" x1="31" y1="214.5" x2="31" y2="214.5"/>
		<line fill="none" stroke="#E7E7E7" stroke-miterlimit="10" stroke-dasharray="1,1" x1="32" y1="214.5" x2="426" y2="214.5"/>
		<line fill="none" stroke="#E7E7E7" stroke-miterlimit="10" x1="426" y1="214.5" x2="427" y2="214.5"/>
	</g>
</g>
<text transform="matrix(1 0 0 1 114.292 238.3799)" opacity="0.7" fill="#FFFFFF" font-family="'HelveticaNeueLTPro-Lt'" font-size="12">UBL 2.1 Devrede</text>
<text transform="matrix(1 0 0 1 30.6895 72.9814)" opacity="0.9" fill="#FFFFFF" font-family="'HelveticaNeueLTPro-Md'" font-size="12">23.04.2015</text>
<text transform="matrix(1 0 0 1 30.6895 114.2471)" opacity="0.4" fill="#FFFFFF" font-family="'HelveticaNeueLTPro-Md'" font-size="12">29.03.2015</text>
<text transform="matrix(1 0 0 1 30.6895 155.5107)" opacity="0.4" fill="#FFFFFF" font-family="'HelveticaNeueLTPro-Md'" font-size="12">28.02.2015</text>
<text transform="matrix(1 0 0 1 30.6895 196.7773)" opacity="0.4" fill="#FFFFFF" font-family="'HelveticaNeueLTPro-Md'" font-size="12">14.02.2015</text>
<text transform="matrix(1 0 0 1 30.6895 238.041)" opacity="0.4" fill="#FFFFFF" font-family="'HelveticaNeueLTPro-Md'" font-size="12">06.02.2015</text>
<text transform="matrix(1 0 0 1 375.9648 272.4404)" opacity="0.5" fill="#FFFFFF" font-family="'HelveticaNeueLTPro-Md'" font-size="10.0037">tümünü listele</text>
<g>
	<circle fill="#FFFFFF" cx="438.194" cy="24.316" r="8.709"/>
	<g>
		<path fill="#A84768" d="M437.4,24.162l-2.045-2.799h1.576l1.233,1.817l1.292-1.817h1.507l-2.011,2.73l2.262,3.177h-1.564
			l-1.496-2.185l-1.451,2.185h-1.531L437.4,24.162z"/>
	</g>
</g>
<g>
	<g>
		<polygon fill="#53936A" points="28.195,390 25.975,400.011 33.531,394.92 34.624,390 		"/>
		<path fill="#1F2740" d="M45.658,409.883l8.877-17.609h6.813l-4.978,23.555H51.86l2.335-11.15c0.57-2.652,1.135-5.02,1.691-7.104
			h-0.081l-9.167,18.254h-4.525l-0.983-18.254h-0.064c-0.119,0.945-0.322,2.186-0.612,3.722s-1.295,6.38-3.013,14.532H33.01
			l4.979-23.555h6.509l1.095,17.609H45.658z"/>
		<path fill="#1F2740" d="M78.383,399.138c0,2.587-0.912,4.62-2.732,6.097s-4.332,2.217-7.533,2.217h-1.383l-1.758,8.377h-4.914
			l4.979-23.555h5.446c2.599,0,4.563,0.572,5.896,1.715C77.715,395.133,78.383,396.849,78.383,399.138z M67.62,403.359h0.901
			c1.524,0,2.725-0.371,3.602-1.112c0.874-0.741,1.312-1.735,1.312-2.981c0-1.934-1.046-2.899-3.142-2.899h-1.191L67.62,403.359z"/>
		<path fill="#1F2740" d="M90.385,415.828H77.224l4.978-23.555H95.38l-0.869,4.093h-8.25l-1.078,5.171h7.685l-0.887,4.093h-7.686
			l-1.289,6.073h8.25L90.385,415.828z"/>
		<path fill="#1F2740" d="M99.958,406.79l-1.917,9.038h-4.914l4.979-23.555h5.784c2.545,0,4.458,0.548,5.734,1.645
			c1.279,1.094,1.918,2.7,1.918,4.817c0,1.696-0.446,3.154-1.337,4.373c-0.893,1.22-2.176,2.124-3.851,2.714l4.206,10.006h-5.35
			l-3.336-9.038H99.958z M100.812,402.729h1.258c1.404,0,2.5-0.306,3.286-0.918c0.783-0.611,1.175-1.545,1.175-2.802
			c0-0.881-0.254-1.542-0.766-1.983c-0.51-0.438-1.312-0.659-2.408-0.659h-1.191L100.812,402.729z"/>
		<path fill="#1F2740" d="M123.949,410.221h-7.621l-2.77,5.607h-5.156l12.341-23.65h6.01l2.368,23.65h-4.783L123.949,410.221z
			 M123.707,406.033l-0.418-5.639c-0.107-1.408-0.161-2.767-0.161-4.077v-0.579c-0.472,1.287-1.059,2.651-1.757,4.092l-3.027,6.203
			H123.707z"/>
		<polygon fill="#1F2740" points="24.373,416 29.286,416 33.477,396.272 27.701,400.359 		"/>
		<polygon fill="#53936A" points="28.195,390 28.756,387.521 29.985,388.833 32.025,386.262 33.01,388.877 35.145,387.519 
			34.624,390 		"/>
	</g>
	<text transform="matrix(1 0 0 1 142.333 412.333)" font-family="'HelveticaNeueLTPro-LtIt'" font-size="25.0276">Elementer Sigortacılık</text>
	<text transform="matrix(1 0 0 1 24.3726 448.334)" opacity="0.8"><tspan x="0" y="0" font-family="'HelveticaNeueLTPro-Lt'" font-size="18">Yeni bir ürünü pazara ne kadar </tspan><tspan x="242.079" y="0" font-family="'HelveticaNeueLTPro-Md'" font-size="18">hızlı</tspan><tspan x="274.424" y="0" font-family="'HelveticaNeueLTPro-Lt'" font-size="18"> çıkarabiliyorsunuz?</tspan><tspan x="0" y="21.6" font-family="'HelveticaNeueLTPro-Lt'" font-size="18">Yenilikçi ve Gelişmiş Çözümler, Entegre Modüller,</tspan><tspan x="0" y="43.2" font-family="'HelveticaNeueLTPro-Lt'" font-size="18">Müşteri ve Risk Odaklı Tasarım </tspan></text>
</g>
</svg>
