<?xml version="1.0" encoding="utf-8"?>
<!-- Generator: Adobe Illustrator 16.0.0, SVG Export Plug-In . SVG Version: 6.00 Build 0)  -->
<!DOCTYPE svg PUBLIC "-//W3C//DTD SVG 1.1//EN" "http://www.w3.org/Graphics/SVG/1.1/DTD/svg11.dtd">
<svg version="1.1" id="Layer_1" xmlns="http://www.w3.org/2000/svg" xmlns:xlink="http://www.w3.org/1999/xlink" x="0px" y="0px"
	 width="133px" height="28px" viewBox="0 0 133 28" enable-background="new 0 0 133 28" xml:space="preserve">
<polygon fill="#53936A" points="7.111,5 5.568,12.049 10.816,8.464 11.576,5 "/>
<text transform="matrix(1 0 0 1 80.2959 13.0586)"><tspan x="0" y="0" fill="#53936A" font-family="'OpenSansLight-Italic'" font-size="9.8074">insurance</tspan><tspan x="0" y="9.877" fill="#53936A" font-family="'OpenSansLight-Italic'" font-size="9.8074">Workbench</tspan></text>
<path fill="#FFFFFF" d="M19.239,19.002l6.165-12.23h4.733l-3.458,16.359h-3.133l1.622-7.744c0.396-1.842,0.788-3.486,1.175-4.934
	h-0.056L19.92,23.131h-3.144l-0.683-12.678h-0.045c-0.083,0.657-0.224,1.519-0.425,2.585c-0.201,1.066-0.899,4.431-2.092,10.093
	h-3.077l3.458-16.359h4.52l0.761,12.23H19.239z"/>
<path fill="#FFFFFF" d="M41.966,11.539c0,1.798-0.633,3.209-1.897,4.235s-3.008,1.539-5.231,1.539h-0.962l-1.22,5.818h-3.414
	l3.458-16.359h3.782c1.805,0,3.17,0.397,4.095,1.191S41.966,9.949,41.966,11.539z M34.491,14.471h0.626
	c1.059,0,1.893-0.258,2.5-0.772s0.912-1.205,0.912-2.07c0-1.343-0.727-2.014-2.182-2.014h-0.828L34.491,14.471z"/>
<path fill="#FFFFFF" d="M50.303,23.131h-9.141l3.457-16.359h9.153l-0.604,2.842h-5.729l-0.749,3.591h5.337l-0.615,2.842h-5.338
	l-0.895,4.218h5.729L50.303,23.131z"/>
<path fill="#FFFFFF" d="M56.951,16.854l-1.331,6.277h-3.414l3.458-16.359h4.017c1.769,0,3.096,0.38,3.983,1.142
	c0.889,0.76,1.332,1.875,1.332,3.346c0,1.178-0.311,2.191-0.93,3.038s-1.51,1.475-2.674,1.885l2.922,6.949h-3.716l-2.317-6.277
	H56.951z M57.545,14.033h0.872c0.976,0,1.737-0.212,2.282-0.638s0.816-1.074,0.816-1.947c0-0.611-0.177-1.07-0.531-1.376
	c-0.354-0.306-0.912-0.458-1.673-0.458h-0.827L57.545,14.033z"/>
<path fill="#FFFFFF" d="M73.613,19.236H68.32l-1.924,3.895h-3.582l8.572-16.426h4.173l1.646,16.426h-3.323L73.613,19.236z
	 M73.445,16.328l-0.291-3.917c-0.075-0.978-0.112-1.921-0.112-2.832V9.177c-0.327,0.896-0.735,1.843-1.22,2.842l-2.104,4.309H73.445
	z"/>
<polygon fill="#FFFFFF" points="4.456,23 7.869,23 10.779,9.424 6.768,12.2 "/>
<polygon fill="#53936A" points="7.111,5 7.5,3.375 8.354,4.333 9.771,2.573 10.455,4.401 11.938,3.367 11.576,5 "/>
</svg>
