<?xml version="1.0" encoding="utf-8"?>
<!-- Generator: Adobe Illustrator 16.0.0, SVG Export Plug-In . SVG Version: 6.00 Build 0)  -->
<!DOCTYPE svg PUBLIC "-//W3C//DTD SVG 1.1//EN" "http://www.w3.org/Graphics/SVG/1.1/DTD/svg11.dtd">
<svg version="1.1" id="Capa_1" xmlns="http://www.w3.org/2000/svg" xmlns:xlink="http://www.w3.org/1999/xlink" x="0px" y="0px"
	 width="20px" height="20.001px" viewBox="246 246 20 20.001" enable-background="new 246 246 20 20.001" xml:space="preserve">
<g>
	<g>
		<path fill="#131B38" d="M264.896,247.099c-0.729-0.732-1.614-1.099-2.646-1.099h-12.5c-1.032,0-1.918,0.367-2.651,1.099
			c-0.732,0.733-1.099,1.62-1.099,2.651v12.5c0,1.032,0.366,1.918,1.099,2.646c0.733,0.74,1.62,1.104,2.651,1.104h12.5
			c1.031,0,1.918-0.364,2.646-1.104c0.739-0.729,1.104-1.614,1.104-2.646v-12.5C266,248.719,265.636,247.833,264.896,247.099z
			 M253.085,262.67h-3.75v-3.75l7.084-7.084l3.751,3.75L253.085,262.67z M262.201,253.554L261,254.75l-3.75-3.75l1.201-1.196
			c0.237-0.244,0.533-0.366,0.879-0.366c0.352,0,0.645,0.122,0.889,0.366l1.982,1.978c0.236,0.242,0.361,0.539,0.361,0.884
			C262.562,253.016,262.438,253.31,262.201,253.554z"/>
		<polygon fill="#131B38" points="250.585,259.438 250.585,260.17 251.835,260.17 251.835,261.42 252.562,261.42 253.241,260.736 
			251.259,258.764 		"/>
		<path fill="#131B38" d="M252.47,257.514c-0.146,0.143-0.158,0.273-0.039,0.391c0.116,0.117,0.244,0.104,0.391-0.039l3.794-3.793
			c0.144-0.146,0.156-0.275,0.039-0.391c-0.117-0.119-0.248-0.107-0.396,0.039L252.47,257.514z"/>
	</g>
</g>
</svg>
