<?xml version="1.0" encoding="utf-8"?>
<!-- Generator: Adobe Illustrator 16.0.0, SVG Export Plug-In . SVG Version: 6.00 Build 0)  -->
<!DOCTYPE svg PUBLIC "-//W3C//DTD SVG 1.1//EN" "http://www.w3.org/Graphics/SVG/1.1/DTD/svg11.dtd">
<svg version="1.1" id="Layer_1" xmlns="http://www.w3.org/2000/svg" xmlns:xlink="http://www.w3.org/1999/xlink" x="0px" y="0px"
	 width="18.388px" height="17.51px" viewBox="0 0 18.388 17.51" enable-background="new 0 0 18.388 17.51" xml:space="preserve">
<g>
	<path fill="#1F2740" d="M16.242,2.984l-0.889-0.881c-0.291-0.291-0.763-0.286-1.053,0.005L13.49,2.923
		c-0.753-0.498-1.604-0.855-2.519-1.032l-0.003-1.148C10.969,0.332,10.632,0,10.223,0L8.974,0.005c-0.412,0-0.742,0.336-0.742,0.744
		L8.235,1.9C7.322,2.086,6.47,2.448,5.725,2.951L4.907,2.144c-0.29-0.29-0.763-0.288-1.053,0.003L2.977,3.032
		c-0.29,0.29-0.287,0.762,0.004,1.052l0.817,0.811C3.299,5.646,2.94,6.498,2.762,7.413L1.612,7.414
		c-0.411,0-0.742,0.339-0.742,0.747l0.005,1.251c0,0.411,0.335,0.739,0.745,0.739h1.148c0.187,0.911,0.548,1.763,1.054,2.51
		l-0.81,0.815c-0.29,0.29-0.287,0.762,0.003,1.053l0.889,0.882c0.29,0.29,0.763,0.287,1.053-0.004l0.812-0.816
		c0.752,0.499,1.604,0.857,2.518,1.033l0.004,1.147c0,0.411,0.335,0.742,0.745,0.742l1.248-0.004c0.413,0,0.743-0.335,0.743-0.743
		l-0.004-1.151c0.912-0.187,1.766-0.548,2.511-1.052l0.817,0.808c0.289,0.29,0.764,0.287,1.053-0.004l0.882-0.89
		c0.29-0.289,0.285-0.761-0.004-1.051l-0.816-0.812c0.497-0.751,0.856-1.604,1.031-2.516l1.149-0.004
		c0.411,0,0.742-0.339,0.742-0.746l-0.005-1.251c0-0.41-0.336-0.738-0.745-0.738l-1.149,0.003c-0.185-0.914-0.548-1.766-1.053-2.513
		l0.81-0.816C16.535,3.744,16.532,3.271,16.242,2.984z M9.646,13.753c-2.758,0.011-5.004-2.217-5.015-4.98
		C4.622,6.015,6.85,3.771,9.61,3.757c2.76-0.009,5.005,2.221,5.016,4.981C14.634,11.497,12.404,13.742,9.646,13.753z"/>
</g>
</svg>
