<?xml version="1.0" encoding="utf-8"?>
<!-- Generator: Adobe Illustrator 16.0.0, SVG Export Plug-In . SVG Version: 6.00 Build 0)  -->
<!DOCTYPE svg PUBLIC "-//W3C//DTD SVG 1.1//EN" "http://www.w3.org/Graphics/SVG/1.1/DTD/svg11.dtd">
<svg version="1.1" id="Layer_1" xmlns="http://www.w3.org/2000/svg" xmlns:xlink="http://www.w3.org/1999/xlink" x="0px" y="0px"
	 width="1399.523px" height="416.07px" viewBox="0 0 1399.523 416.07" enable-background="new 0 0 1399.523 416.07"
	 xml:space="preserve">
<g>
	<g>
		<path fill="#FFFFFF" d="M835,283c0,2.209-1.791,4-4,4H302c-2.209,0-4-1.791-4-4V6c0-2.209,1.791-4,4-4h529c2.209,0,4,1.791,4,4
			V283z"/>
		<path fill="none" stroke="#E7E7E7" stroke-miterlimit="10" d="M834.5,282.5c0,2.209-1.791,4-4,4h-529c-2.209,0-4-1.791-4-4V5.5
			c0-2.209,1.791-4,4-4h529c2.209,0,4,1.791,4,4V282.5z"/>
	</g>
	<text transform="matrix(1 0 0 1 315.167 30.71)" fill="#343E54" font-family="'HelveticaNeueLTPro-Lt'" font-size="16.6931">ÜRÜNLER</text>
	<path fill="#53936A" d="M496.854,103.29c-16.176-16.176-38.521-26.18-63.203-26.18c-13.014,0-25.363,2.804-36.516,7.804
		l36.516,81.579L496.854,103.29z"/>
	<path fill="#839968" d="M397.135,84.914c-25.836,11.582-45.18,35.052-51.029,63.467l87.545,18.112L397.135,84.914z"/>
	<path fill="#2B3451" d="M523.033,166.493c0-24.683-10.004-47.027-26.18-63.203l-63.203,63.203l55.971,69.667
		C509.986,219.778,523.033,194.664,523.033,166.493z"/>
	<path fill="#4A3C5E" d="M346.105,148.381c-1.203,5.85-1.838,11.907-1.838,18.112c0,49.364,40.018,89.383,89.383,89.383
		c21.193,0,40.65-7.39,55.971-19.716l-55.971-69.667L346.105,148.381z"/>
	<circle fill="#FFFFFF" cx="433.211" cy="166.492" r="42.715"/>
	<g>
		<text transform="matrix(1 0 0 1 380.8379 226.3174)" fill="#F8F8F8" font-family="'HelveticaNeueLTPro-Bd'" font-size="13.755">%43</text>
	</g>
	<g>
		<text transform="matrix(1 0 0 1 485.5938 174.0586)" fill="#F8F8F8" font-family="'HelveticaNeueLTPro-Bd'" font-size="13.755">%28</text>
	</g>
	<g>
		<text transform="matrix(1 0 0 1 431.3652 105.6514)" fill="#F8F8F8" font-family="'HelveticaNeueLTPro-Bd'" font-size="13.755">%16</text>
	</g>
	<g>
		<text transform="matrix(1 0 0 1 366.6064 128.126)" fill="#F8F8F8" font-family="'HelveticaNeueLTPro-Bd'" font-size="13.755">%13</text>
	</g>
	<g>
		<g>
			<line fill="none" stroke="#E7E7E7" stroke-miterlimit="10" x1="575" y1="129.5" x2="576" y2="129.5"/>
			<line fill="none" stroke="#E7E7E7" stroke-miterlimit="10" stroke-dasharray="1,1" x1="577" y1="129.5" x2="737" y2="129.5"/>
			<line fill="none" stroke="#E7E7E7" stroke-miterlimit="10" x1="737" y1="129.5" x2="738" y2="129.5"/>
		</g>
	</g>
	<g>
		<g>
			<line fill="none" stroke="#E7E7E7" stroke-miterlimit="10" x1="575" y1="163.5" x2="576" y2="163.5"/>
			<line fill="none" stroke="#E7E7E7" stroke-miterlimit="10" stroke-dasharray="1,1" x1="577" y1="163.5" x2="737" y2="163.5"/>
			<line fill="none" stroke="#E7E7E7" stroke-miterlimit="10" x1="737" y1="163.5" x2="738" y2="163.5"/>
		</g>
	</g>
	<g>
		<g>
			<line fill="none" stroke="#E7E7E7" stroke-miterlimit="10" x1="575" y1="198.5" x2="576" y2="198.5"/>
			<line fill="none" stroke="#E7E7E7" stroke-miterlimit="10" stroke-dasharray="1,1" x1="577" y1="198.5" x2="737" y2="198.5"/>
			<line fill="none" stroke="#E7E7E7" stroke-miterlimit="10" x1="737" y1="198.5" x2="738" y2="198.5"/>
		</g>
	</g>
	<text transform="matrix(1 0 0 1 667.2285 116.8438)" fill="#343E54" font-family="'HelveticaNeueLTPro-Lt'" font-size="13.7136">180.982 TL</text>
	<g>
		<text transform="matrix(1 0 0 1 603.8496 115.5166)" fill="#666666" font-family="'HelveticaNeueLTPro-Bd'" font-size="10.9508">TRAFİK</text>
	</g>
	<rect x="575" y="106" fill="#839968" width="13" height="12"/>
	<text transform="matrix(1 0 0 1 667.2285 151.3594)" fill="#343E54" font-family="'HelveticaNeueLTPro-Lt'" font-size="13.7136">102.247 TL</text>
	<g>
		<text transform="matrix(1 0 0 1 603.8496 150.0332)" fill="#666666" font-family="'HelveticaNeueLTPro-Bd'" font-size="10.9508">KASKO</text>
	</g>
	<rect x="575" y="140" fill="#53936A" width="13" height="13"/>
	<text transform="matrix(1 0 0 1 675.5723 185.876)" fill="#343E54" font-family="'HelveticaNeueLTPro-Lt'" font-size="13.7136">78.452 TL</text>
	<g>
		<text transform="matrix(1 0 0 1 603.8496 184.5498)" fill="#666666" font-family="'HelveticaNeueLTPro-Bd'" font-size="10.9508">YANGIN</text>
	</g>
	<rect x="575" y="175" fill="#4A3C5E" width="13" height="12"/>
	<text transform="matrix(1 0 0 1 675.5723 220.3916)" fill="#343E54" font-family="'HelveticaNeueLTPro-Lt'" font-size="13.7136">63.898 TL</text>
	<g>
		<text transform="matrix(1 0 0 1 603.8496 219.0654)" fill="#666666" font-family="'HelveticaNeueLTPro-Bd'" font-size="10.9508">DEPREM</text>
	</g>
	<rect x="575" y="209" fill="#2B3451" width="14" height="13"/>
	<g>
		<path fill="#FFFFFF" d="M1393,283c0,2.209-1.791,4-4,4H862c-2.209,0-4-1.791-4-4V6c0-2.209,1.791-4,4-4h527c2.209,0,4,1.791,4,4
			V283z"/>
		<path fill="none" stroke="#E7E7E7" stroke-miterlimit="10" d="M1392.5,282.5c0,2.209-1.791,4-4,4h-527c-2.209,0-4-1.791-4-4V5.5
			c0-2.209,1.791-4,4-4h527c2.209,0,4,1.791,4,4V282.5z"/>
	</g>
	<text transform="matrix(1 0 0 1 878.2246 31.8145)" fill="#343E54" font-family="'HelveticaNeueLTPro-Lt'" font-size="16.6931">AYLIK ÜRETİM MİKTARI</text>
	<g>
		<g>
			<line fill="none" stroke="#E7E7E7" stroke-miterlimit="10" x1="858" y1="252.5" x2="858" y2="252.5"/>
			<line fill="none" stroke="#E7E7E7" stroke-miterlimit="10" stroke-dasharray="1,1" x1="859" y1="252.5" x2="1392" y2="252.5"/>
			<line fill="none" stroke="#E7E7E7" stroke-miterlimit="10" x1="1392" y1="252.5" x2="1393" y2="252.5"/>
		</g>
	</g>
	<g>
		<text transform="matrix(1 0 0 1 1276.5742 30.2021)" fill="#8E8E8E" font-family="'HelveticaNeueLTPro-Lt'" font-size="12">Poliçe Sayısı</text>
	</g>
	<g>
		<text transform="matrix(1 0 0 1 1178.666 29.9385)" fill="#8E8E8E" font-family="'HelveticaNeueLTPro-Lt'" font-size="12">Prim Tutarı</text>
	</g>
	<circle fill="#FFFFFF" stroke="#E7E7E7" stroke-miterlimit="10" cx="814.194" cy="22.35" r="8.709"/>
	<g>
		<path fill="#8E8E8E" d="M813.4,22.195l-2.045-2.799h1.576l1.233,1.817l1.292-1.817h1.507l-2.011,2.73l2.262,3.177h-1.564
			l-1.496-2.185l-1.451,2.185h-1.531L813.4,22.195z"/>
	</g>
	<g>
		<circle fill="#FFFFFF" stroke="#E7E7E7" stroke-miterlimit="10" cx="1373.194" cy="22.35" r="8.709"/>
		<g>
			<path fill="#8E8E8E" d="M1372.4,21.926l-2.045-2.799h1.576l1.233,1.817l1.292-1.817h1.507l-2.011,2.73l2.262,3.177h-1.564
				l-1.496-2.185l-1.451,2.185h-1.531L1372.4,21.926z"/>
		</g>
	</g>
	<g>
		<path fill="#FFFFFF" d="M1112,406c0,2.209-1.791,4-4,4H859c-2.209,0-4-1.791-4-4v-91c0-2.209,1.791-4,4-4h249c2.209,0,4,1.791,4,4
			V406z"/>
		<path fill="none" stroke="#E7E7E7" stroke-miterlimit="10" d="M1111.5,405.5c0,2.209-1.791,4-4,4h-249c-2.209,0-4-1.791-4-4v-91
			c0-2.209,1.791-4,4-4h249c2.209,0,4,1.791,4,4V405.5z"/>
	</g>
	<g>
		<path fill="#FFFFFF" d="M1391,406c0,2.209-1.791,4-4,4h-249c-2.209,0-4-1.791-4-4v-91c0-2.209,1.791-4,4-4h249
			c2.209,0,4,1.791,4,4V406z"/>
		<path fill="none" stroke="#E7E7E7" stroke-miterlimit="10" d="M1390.5,405.5c0,2.209-1.791,4-4,4h-249c-2.209,0-4-1.791-4-4v-91
			c0-2.209,1.791-4,4-4h249c2.209,0,4,1.791,4,4V405.5z"/>
	</g>
	<g>
		<path fill="#FFFFFF" d="M555,406c0,2.209-1.791,4-4,4H302c-2.209,0-4-1.791-4-4v-91c0-2.209,1.791-4,4-4h249c2.209,0,4,1.791,4,4
			V406z"/>
		<path fill="none" stroke="#E7E7E7" stroke-miterlimit="10" d="M554.5,405.5c0,2.209-1.791,4-4,4h-249c-2.209,0-4-1.791-4-4v-91
			c0-2.209,1.791-4,4-4h249c2.209,0,4,1.791,4,4V405.5z"/>
	</g>
	<g>
		<path fill="#FFFFFF" d="M834,406c0,2.209-1.791,4-4,4H581c-2.209,0-4-1.791-4-4v-91c0-2.209,1.791-4,4-4h249c2.209,0,4,1.791,4,4
			V406z"/>
		<path fill="none" stroke="#E7E7E7" stroke-miterlimit="10" d="M833.5,405.5c0,2.209-1.791,4-4,4h-249c-2.209,0-4-1.791-4-4v-91
			c0-2.209,1.791-4,4-4h249c2.209,0,4,1.791,4,4V405.5z"/>
	</g>
	<text transform="matrix(1 0 0 1 945.3398 358.9531)" fill="#53936A" font-family="'HelveticaNeueLTPro-Lt'" font-size="18">Alış</text>
	<g>
		<text transform="matrix(1 0 0 1 1018.9053 358.9531)" fill="#343E54" font-family="'HelveticaNeueLTPro-Lt'" font-size="18">Satış</text>
	</g>
	<text transform="matrix(1 0 0 1 932.0283 379.9707)" fill="#808080" font-family="'HelveticaNeueLTPro-Lt'" font-size="13.7136">2.673 TL</text>
	<text transform="matrix(1 0 0 1 1011.3262 379.9707)" fill="#808080" font-family="'HelveticaNeueLTPro-Lt'" font-size="13.7136">2.802 TL</text>
	<polygon fill="#39AA4A" points="1089.639,363 1095.1,353.541 1100.559,363 	"/>
	<text transform="matrix(1 0 0 1 1223.3398 358.9531)" fill="#53936A" font-family="'HelveticaNeueLTPro-Lt'" font-size="18">Alış</text>
	<g>
		<text transform="matrix(1 0 0 1 1296.9053 358.9531)" fill="#343E54" font-family="'HelveticaNeueLTPro-Lt'" font-size="18">Satış</text>
	</g>
	<text transform="matrix(1 0 0 1 1210.0283 379.9707)" fill="#808080" font-family="'HelveticaNeueLTPro-Lt'" font-size="13.7136">2.673 TL</text>
	<text transform="matrix(1 0 0 1 1289.3262 379.9707)" fill="#808080" font-family="'HelveticaNeueLTPro-Lt'" font-size="13.7136">2.802 TL</text>
	<polygon fill="#29A0D7" points="1368.369,352.347 1377.828,357.808 1368.369,363.268 	"/>
	<text transform="matrix(1 0 0 1 871.9746 387.1895)" fill="#343E54" font-family="'HelveticaNeueLTPro-Lt'" font-size="14.5674">GBP</text>
	<text transform="matrix(1 0 0 1 1152.4883 387.6504)" fill="#343E54" font-family="'HelveticaNeueLTPro-Lt'" font-size="16">JPY</text>
	<path fill="#343E54" d="M1175.727,347.344v2.863h-5.402l-2.737,4.658h7.45v2.879h-7.975v10.062h-4.023v-10.062h-7.76v-2.879h7.25
		l-2.754-4.658h-5.492v-2.863h3.809l-5.604-9.537h4.748l7.813,14.43l7.829-14.43h4.77l-5.62,9.537H1175.727z"/>
	<text transform="matrix(1 0 0 1 945.7363 100.2051)" fill="#808080" font-family="'HelveticaNeueLTPro-Lt'" font-size="12.5708">12milyonTL</text>
	<text transform="matrix(1 0 0 1 896.0215 155.4346)" fill="#808080" font-family="'HelveticaNeueLTPro-Lt'" font-size="12.5708">1205</text>
	<g>
		<text transform="matrix(1 0 0 1 1263.0664 274.6729)" fill="#343E54" font-family="'HelveticaNeueLTPro-Md'" font-size="11">NİSAN 2015</text>
	</g>
	<text transform="matrix(1 0 0 1 1099.4316 274.6729)" fill="#343E54" font-family="'HelveticaNeueLTPro-Md'" font-size="11">MART 2015</text>
	<g>
		<text transform="matrix(1 0 0 1 898.959 274.6729)" fill="#343E54" font-family="'HelveticaNeueLTPro-Md'" font-size="11">ŞUBAT 2015</text>
	</g>
	<g>
		<text transform="matrix(1 0 0 1 315.167 47.0332)" fill="#8E8E8E" font-family="'HelveticaNeueLTPro-Lt'" font-size="12">Satışı en çok olan ilk 4 ürün</text>
	</g>
	<rect x="884" y="166" fill="#DBDBDB" width="52" height="86"/>
	<rect x="948" y="112" fill="#53936A" width="52" height="140"/>
	<text transform="matrix(1 0 0 1 1134.2305 143.2256)" fill="#808080" font-family="'HelveticaNeueLTPro-Lt'" font-size="12.5708">9.502 TL</text>
	<text transform="matrix(1 0 0 1 1084.5156 186.832)" fill="#808080" font-family="'HelveticaNeueLTPro-Lt'" font-size="12.5708">743</text>
	<rect x="1069" y="195" fill="#DBDBDB" width="52" height="57"/>
	<rect x="1133" y="160" fill="#53936A" width="52" height="92"/>
	<text transform="matrix(1 0 0 1 1297.7363 137.126)" fill="#808080" font-family="'HelveticaNeueLTPro-Lt'" font-size="12.5708">10.000 TL</text>
	<text transform="matrix(1 0 0 1 1248.0215 108.7666)" fill="#808080" font-family="'HelveticaNeueLTPro-Lt'" font-size="12.5708">1545</text>
	<rect x="1236" y="121" fill="#DBDBDB" width="52" height="131"/>
	<rect x="1300" y="147" fill="#53936A" width="52" height="105"/>
	<circle fill="#53936A" cx="1161.327" cy="26.197" r="7.161"/>
	<circle fill="#DBDBDB" cx="1256.327" cy="26.197" r="7.161"/>
	<text transform="matrix(1 0 0 1 388.3398 358.9531)" fill="#53936A" font-family="'HelveticaNeueLTPro-Lt'" font-size="18">Alış</text>
	<g>
		<text transform="matrix(1 0 0 1 461.9053 358.9531)" fill="#343E54" font-family="'HelveticaNeueLTPro-Lt'" font-size="18">Satış</text>
	</g>
	<text transform="matrix(1 0 0 1 375.0283 379.9707)" fill="#808080" font-family="'HelveticaNeueLTPro-Lt'" font-size="13.7136">2.673 TL</text>
	<text transform="matrix(1 0 0 1 454.3262 379.9707)" fill="#808080" font-family="'HelveticaNeueLTPro-Lt'" font-size="13.7136">2.802 TL</text>
	<text transform="matrix(1 0 0 1 309.5137 387.6494)" fill="#343E54" font-family="'HelveticaNeueLTPro-Lt'" font-size="16">Dolar</text>
	<path fill="#343E54" d="M334.219,352.454c-1.006-0.695-2.916-1.441-5.74-2.222v-8.894c1.666,0.049,2.896,0.709,3.66,1.924
		c0.414,0.675,0.674,1.474,0.762,2.392h3.176c-0.055-2.062-0.727-3.712-2.028-4.978c-1.284-1.249-3.138-1.959-5.569-2.133v-2.393
		h-1.732v2.427c-2.449,0.036-4.334,0.781-5.705,2.271c-1.355,1.477-2.031,3.142-2.031,4.996c0,2.062,0.627,3.692,1.891,4.854
		c1.25,1.162,3.207,1.995,5.846,2.502v9.949c-2.066-0.172-3.469-0.936-4.232-2.322c-0.418-0.765-0.693-1.978-0.8-3.641h-3.204
		c0,2.079,0.326,3.743,1.02,4.975c1.268,2.273,3.676,3.537,7.217,3.763v3.537h1.732v-3.537c2.203-0.241,3.885-0.746,5.045-1.489
		c2.117-1.373,3.174-3.676,3.154-6.902C336.678,355.279,335.867,353.596,334.219,352.454z M326.746,349.885
		c-1.355-0.276-2.43-0.744-3.24-1.423c-0.82-0.693-1.217-1.627-1.217-2.826c0-1.006,0.343-1.957,1.023-2.878
		c0.676-0.9,1.819-1.388,3.434-1.457V349.885z M332.781,360.972c-0.783,1.415-2.219,2.179-4.303,2.266v-9.607
		c1.51,0.419,2.604,0.867,3.242,1.318c1.129,0.799,1.682,1.959,1.682,3.469C333.402,359.388,333.195,360.22,332.781,360.972z"/>
	<polygon fill="#39AA4A" points="532.639,363 538.1,353.541 543.559,363 	"/>
	<text transform="matrix(1 0 0 1 667.3398 358.9531)" fill="#53936A" font-family="'HelveticaNeueLTPro-Lt'" font-size="18">Alış</text>
	<g>
		<text transform="matrix(1 0 0 1 740.9053 358.9531)" fill="#343E54" font-family="'HelveticaNeueLTPro-Lt'" font-size="18">Satış</text>
	</g>
	<text transform="matrix(1 0 0 1 654.0283 379.9707)" fill="#808080" font-family="'HelveticaNeueLTPro-Lt'" font-size="13.7136">2.673 TL</text>
	<text transform="matrix(1 0 0 1 733.3262 379.9707)" fill="#808080" font-family="'HelveticaNeueLTPro-Lt'" font-size="13.7136">2.802 TL</text>
	<polygon fill="#EC881E" points="822.559,353 817.098,362.459 811.639,353 	"/>
	<text transform="matrix(1 0 0 1 586.8887 387.6504)" fill="#343E54" font-family="'HelveticaNeueLTPro-Lt'" font-size="16">EUR</text>
	<path fill="#343E54" d="M613.178,365.394c-2.104,2.71-4.934,4.069-8.529,4.069c-3.064,0-5.659-1.104-7.762-3.342
		c-1.982-2.086-3.263-5.013-3.812-8.766h-5.426l0.907-3.047h4.226c-0.041-0.59-0.059-1.197-0.059-1.805
		c0-0.532,0.018-1.062,0.059-1.596h-5.133l0.907-3.064h4.558c0.488-2.613,1.418-4.893,2.751-6.816
		c2.239-3.244,5.325-4.877,9.276-4.877c3.361,0,5.974,1.062,7.822,3.166c1.864,2.121,2.887,4.521,3.103,7.191h-3.522
		c-0.388-2.024-1.174-3.652-2.373-4.832c-1.178-1.198-2.847-1.789-4.99-1.789c-2.615,0-4.737,1.1-6.347,3.279
		c-0.884,1.221-1.516,2.773-1.907,4.678h12.006l-0.902,3.064h-11.535c-0.06,0.73-0.08,1.516-0.08,2.321c0,0.374,0,0.745,0.021,1.079
		h12.497l-0.922,3.064h-11.26c0.354,1.871,0.961,3.499,1.848,4.877c1.433,2.299,3.594,3.459,6.482,3.459
		c2.653,0,4.697-1.221,6.074-3.637c0.746-1.299,1.275-2.967,1.649-5.047h3.499C615.988,360.344,614.946,363.133,613.178,365.394z"/>
	<g>
		<path fill="#343E54" d="M876.812,367.807v-2.799c3.693-1.566,5.988-4.141,5.988-7.106c0-0.84-0.055-1.679-0.225-2.519h-5.428
			v-3.078h4.812c-0.223-1.175-0.447-2.35-0.447-3.469c0-6.437,4.311-10.857,10.746-10.857c2.797,0,4.867,0.672,6.098,1.398
			l-1.062,3.639c-1.008-0.616-2.797-1.176-5.035-1.176c-4.086,0-6.102,2.742-6.102,7.051c0,1.176,0.168,2.352,0.393,3.414h8.338
			v3.078h-7.724c0.058,0.615,0.114,1.287,0.114,1.848c-0.057,2.909-1.512,5.147-3.527,6.49v0.112h16.342v3.974H876.812z"/>
	</g>
	<rect x="875.5" y="44.5" fill="#F2F2F2" stroke="#E7E7E7" stroke-miterlimit="10" width="127" height="23"/>
	<g>
		<text transform="matrix(1 0 0 1 884.915 59.3662)" fill="#8E8E8E" font-family="'HelveticaNeueLTPro-Lt'" font-size="12">Yangın</text>
	</g>
	<polygon fill="#999999" points="989.658,51 993.658,51 991.658,55.142 989.658,58.945 987.658,54.972 985.658,51 	"/>
</g>
<g>
	<path fill="#FFFFFF" d="M275,406c0,2.209-1.791,4-4,4H7c-2.209,0-4-1.791-4-4V6c0-2.209,1.791-4,4-4h264c2.209,0,4,1.791,4,4V406z"
		/>
	<path fill="none" stroke="#E7E7E7" stroke-miterlimit="10" d="M274.5,405.5c0,2.209-1.791,4-4,4H6.5c-2.209,0-4-1.791-4-4V5.5
		c0-2.209,1.791-4,4-4h264c2.209,0,4,1.791,4,4V405.5z"/>
</g>
<g>
	<text transform="matrix(1 0 0 1 227.7305 49.915)" fill="#53936A" font-family="'HelveticaNeueLTPro-Bd'" font-size="18">28</text>
	<text transform="matrix(1 0 0 1 227.7305 114.5566)" fill="#483F89" font-family="'HelveticaNeueLTPro-Bd'" font-size="18">14</text>
	<text transform="matrix(1 0 0 1 227.7305 179.1973)" fill="#53936A" font-family="'HelveticaNeueLTPro-Bd'" font-size="18">02</text>
	<text transform="matrix(1 0 0 1 227.7305 243.8379)" fill="#483F89" font-family="'HelveticaNeueLTPro-Bd'" font-size="18">26</text>
	<text transform="matrix(1 0 0 1 227.7305 308.4795)" fill="#53936A" font-family="'HelveticaNeueLTPro-Bd'" font-size="18">13</text>
	<text transform="matrix(1 0 0 1 227.7305 373.1211)" fill="#483F89" font-family="'HelveticaNeueLTPro-Bd'" font-size="18">05</text>
	<g>
		<text transform="matrix(1 0 0 1 88.1094 40.3447)"><tspan x="0" y="0" fill="#343E54" font-family="'HelveticaNeueLTPro-Lt'" font-size="13.7136">Yenilenmesi Gelen</tspan><tspan x="0" y="16.456" fill="#343E54" font-family="'HelveticaNeueLTPro-Lt'" font-size="13.7136">Poliçeler </tspan></text>
	</g>
	<g>
		<text transform="matrix(1 0 0 1 88.04 169.627)"><tspan x="0" y="0" fill="#343E54" font-family="'HelveticaNeueLTPro-Lt'" font-size="13.7136">Tahsilatı Yapılan</tspan><tspan x="0" y="16.457" fill="#343E54" font-family="'HelveticaNeueLTPro-Lt'" font-size="13.7136">Poliçeler</tspan></text>
	</g>
	<g>
		<text transform="matrix(1 0 0 1 87.9727 104.9863)"><tspan x="0" y="0" fill="#343E54" font-family="'HelveticaNeueLTPro-Lt'" font-size="13.7136">Onay Bekleyen</tspan><tspan x="0" y="16.456" fill="#343E54" font-family="'HelveticaNeueLTPro-Lt'" font-size="13.7136">Poliçeler</tspan></text>
	</g>
	<g>
		<text transform="matrix(1 0 0 1 87.9727 298.9092)"><tspan x="0" y="0" fill="#343E54" font-family="'HelveticaNeueLTPro-Lt'" font-size="13.7136">Onaylanan</tspan><tspan x="0" y="16.456" fill="#343E54" font-family="'HelveticaNeueLTPro-Lt'" font-size="13.7136">Poliçeler</tspan></text>
	</g>
	<g>
		<text transform="matrix(1 0 0 1 87.9727 234.2676)"><tspan x="0" y="0" fill="#343E54" font-family="'HelveticaNeueLTPro-Lt'" font-size="13.7136">Onay Bekleyen</tspan><tspan x="0" y="16.457" fill="#343E54" font-family="'HelveticaNeueLTPro-Lt'" font-size="13.7136">Ödeme Talimatı</tspan></text>
	</g>
	<g>
		<text transform="matrix(1 0 0 1 87.9727 363.5508)"><tspan x="0" y="0" fill="#343E54" font-family="'HelveticaNeueLTPro-Lt'" font-size="13.7136">Kara Liste</tspan><tspan x="0" y="16.456" fill="#343E54" font-family="'HelveticaNeueLTPro-Lt'" font-size="13.7136">Poliçeleri</tspan></text>
	</g>
	<g>
		<g>
			<path fill="#666666" d="M53.428,287.854H36.529l-7.102,6.051v23.699h24V287.854L53.428,287.854z M39.234,289.979h11.674v25.5
				H31.943v-19.258h7.291V289.979L39.234,289.979z"/>
		</g>
		<g>
			<polygon fill="#53936A" points="40.719,312.408 36.197,306.805 37.887,304.752 40.729,308.27 46.111,301.67 47.791,303.732 			
				"/>
		</g>
	</g>
	<g>
		<g id="Layer_2_16_">
			<g>
				<path fill="#666666" d="M44.256,55.668c-0.232,0.059-0.467,0.107-0.701,0.152c-0.611,0.113-1.014,0.701-0.9,1.311
					c0.055,0.301,0.227,0.553,0.457,0.715c0.24,0.17,0.545,0.246,0.854,0.188c0.279-0.053,0.559-0.111,0.834-0.182
					c0.604-0.15,0.971-0.762,0.82-1.363C45.469,55.885,44.859,55.518,44.256,55.668z"/>
				<path fill="#666666" d="M52.578,40.58c0.08,0.238,0.23,0.432,0.42,0.566c0.283,0.197,0.652,0.266,1.004,0.148
					c0.59-0.195,0.91-0.832,0.715-1.422c-0.09-0.27-0.188-0.539-0.293-0.803c-0.232-0.576-0.887-0.857-1.463-0.627
					c-0.578,0.232-0.859,0.887-0.627,1.463C52.422,40.129,52.504,40.355,52.578,40.58z"/>
				<path fill="#666666" d="M47.912,54.061c-0.197,0.131-0.402,0.258-0.609,0.377c-0.539,0.311-0.723,1-0.412,1.537
					c0.084,0.146,0.197,0.268,0.326,0.359c0.346,0.242,0.818,0.279,1.211,0.053c0.246-0.141,0.49-0.291,0.727-0.447
					c0.518-0.344,0.66-1.041,0.318-1.561C49.129,53.859,48.432,53.719,47.912,54.061z"/>
				<path fill="#666666" d="M55.416,43.725c-0.025-0.621-0.549-1.105-1.17-1.08c-0.619,0.023-1.104,0.547-1.08,1.168
					c0.01,0.238,0.012,0.479,0.008,0.715c-0.01,0.391,0.182,0.738,0.477,0.947c0.178,0.123,0.391,0.199,0.623,0.205
					c0.621,0.012,1.137-0.48,1.15-1.102C55.43,44.295,55.428,44.006,55.416,43.725z"/>
				<path fill="#666666" d="M52.395,51.1c-0.498-0.373-1.201-0.273-1.576,0.225c-0.143,0.191-0.293,0.379-0.447,0.561
					c-0.402,0.473-0.346,1.182,0.129,1.586c0.025,0.023,0.053,0.045,0.082,0.062c0.471,0.332,1.123,0.256,1.504-0.189
					c0.184-0.217,0.363-0.441,0.535-0.668C52.994,52.178,52.893,51.473,52.395,51.1z"/>
				<path fill="#666666" d="M54.049,47.031c-0.592-0.188-1.225,0.145-1.41,0.736c-0.07,0.227-0.15,0.455-0.234,0.678
					c-0.188,0.49-0.008,1.031,0.402,1.32c0.076,0.053,0.158,0.098,0.248,0.131c0.582,0.223,1.23-0.068,1.453-0.65
					c0.102-0.264,0.195-0.535,0.279-0.805C54.973,47.848,54.643,47.217,54.049,47.031z"/>
				<path fill="#53936A" d="M39.344,55.83c-1.006-0.182-1.971-0.488-2.887-0.918c-0.012-0.006-0.02-0.012-0.031-0.018
					c-0.217-0.102-0.432-0.211-0.641-0.324c0,0-0.002-0.002-0.004-0.002c-0.383-0.211-0.756-0.443-1.119-0.699
					c-5.295-3.73-6.568-11.072-2.838-16.367c0.811-1.152,1.793-2.111,2.887-2.873c0.014-0.01,0.027-0.018,0.041-0.027
					c3.855-2.656,9.092-2.836,13.186-0.105l-0.879,1.27c-0.244,0.354-0.094,0.611,0.334,0.574l3.82-0.342
					c0.43-0.039,0.686-0.41,0.57-0.824l-1.025-3.695c-0.115-0.414-0.41-0.465-0.654-0.111l-0.883,1.275
					c-3.004-2.018-6.607-2.787-10.186-2.168c-0.359,0.062-0.715,0.139-1.066,0.229c-0.002,0-0.004,0-0.006,0
					c-0.014,0.004-0.027,0.01-0.041,0.012c-3.084,0.793-5.775,2.592-7.695,5.16c-0.018,0.018-0.033,0.037-0.049,0.057
					c-0.064,0.088-0.127,0.176-0.189,0.264c-0.102,0.145-0.201,0.291-0.297,0.439c-0.012,0.018-0.021,0.037-0.031,0.055
					c-1.586,2.455-2.35,5.295-2.219,8.184c0,0.01,0,0.02,0,0.029c0.012,0.283,0.035,0.568,0.064,0.852
					c0.002,0.018,0.006,0.035,0.01,0.053c0.031,0.283,0.07,0.568,0.121,0.852c0.502,2.898,1.867,5.504,3.916,7.533
					c0.006,0.004,0.01,0.01,0.014,0.016c0.002,0,0.004,0.002,0.006,0.004c0.551,0.543,1.148,1.045,1.793,1.498
					c1.688,1.188,3.564,1.975,5.582,2.336c0.611,0.111,1.195-0.297,1.307-0.908C40.363,56.523,39.955,55.939,39.344,55.83z"/>
				<path fill="#666666" d="M40.736,35.172c-0.504,0-0.912,0.408-0.912,0.91v9.074l8.299,4.289c0.135,0.07,0.277,0.104,0.418,0.104
					c0.328,0,0.648-0.18,0.809-0.494c0.232-0.447,0.057-0.996-0.391-1.227l-7.312-3.781v-7.965
					C41.646,35.58,41.238,35.172,40.736,35.172z"/>
			</g>
		</g>
	</g>
	<g>
		<g>
			<polygon fill="#53936A" points="31.77,159.662 38.279,167.695 44.783,159.662 40.693,159.662 40.693,154.602 35.855,154.602 
				35.855,159.662 			"/>
		</g>
		<g>
			<g>
				<circle fill="#666666" cx="41.732" cy="178.389" r="1.057"/>
			</g>
			<g>
				<circle fill="#666666" cx="52.822" cy="178.389" r="1.057"/>
			</g>
			<g>
				<path fill="#666666" d="M55.695,171.98h-16.6c-0.957,0-1.738,0.779-1.738,1.74v5.795c0.256-0.012,0.51-0.018,0.773-0.018
					c0.244,0,0.479,0.006,0.715,0.018v-3.914c0.139,0.033,0.281,0.055,0.434,0.055c0.971,0,1.762-0.791,1.762-1.768
					c0-0.15-0.018-0.293-0.051-0.434h12.926c-0.02,0.107-0.031,0.217-0.031,0.32c0,0.975,0.787,1.768,1.764,1.768
					c0.105,0,0.211-0.012,0.309-0.027v5.344c-0.098-0.016-0.203-0.025-0.309-0.025c-0.971,0-1.764,0.789-1.764,1.766
					c0,0.111,0.012,0.217,0.031,0.32H44.65c0,0.039,0,0.08,0,0.119c0,0.021,0,0.033,0,0.053v1.318h11.039
					c0.957,0,1.736-0.781,1.736-1.74v-8.949C57.432,172.76,56.65,171.98,55.695,171.98z"/>
			</g>
			<g>
				<g>
					<path fill="#666666" d="M27.197,180.475c0.959,0.359,2.225,0.559,3.561,0.559c0.711,0,1.398-0.061,2.027-0.164
						c0.348-0.264,0.795-0.514,1.363-0.725c0.572-0.207,1.234-0.375,1.943-0.477v-0.951c0-0.014,0-0.025,0-0.041l0,0
						c0-0.006,0-0.018,0-0.025v-2.23c0-0.012,0-0.027,0-0.039l0,0c0-0.004,0-0.02,0-0.025v-2.229c0-0.016,0-0.027,0-0.041
						c0-0.518-0.309-1.254-1.771-1.803c-0.957-0.367-2.223-0.564-3.562-0.564c-1.336,0-2.602,0.197-3.561,0.557
						c-1.463,0.545-1.771,1.281-1.771,1.803v2.271c0,0.006,0,0.021,0,0.027l0,0v2.266c0,0.008,0,0.021,0,0.027l0,0v0.027v2.242
						v0.027c0,0.006,0,0.018,0,0.027l0,0v2.268c0,0.006,0,0.021,0,0.027l0,0v2.27c0,0.516,0.309,1.252,1.771,1.801
						c0.959,0.363,2.225,0.559,3.561,0.559c0.289,0,0.572-0.006,0.854-0.027v-0.223v-0.027c0-0.004,0-0.004,0-0.01s0-0.016,0-0.016
						v-0.896c-0.275,0.018-0.564,0.033-0.854,0.033c-1.201,0-2.32-0.172-3.146-0.48c-0.82-0.309-1.012-0.615-1.012-0.695v-0.74
						c0.172,0.09,0.375,0.176,0.598,0.264c0.959,0.357,2.225,0.557,3.561,0.557c0.289,0,0.572-0.008,0.854-0.025v-0.283
						c0-0.006,0-0.006,0-0.016c0-0.006,0-0.01,0-0.01v-0.9c-0.275,0.021-0.564,0.033-0.854,0.033c-1.201,0-2.32-0.17-3.146-0.479
						c-0.82-0.309-1.012-0.617-1.012-0.693v-0.738c0.172,0.094,0.375,0.18,0.598,0.266c0.959,0.359,2.225,0.555,3.561,0.555
						c0.289,0,0.572-0.006,0.854-0.023v-0.281c0-0.266,0.039-0.607,0.195-0.975c-0.338,0.035-0.688,0.047-1.049,0.047
						c-1.201,0-2.32-0.172-3.146-0.477c-0.82-0.309-1.012-0.617-1.012-0.699v-0.732C26.777,180.297,26.975,180.389,27.197,180.475z
						 M27.611,173.379c0.832-0.309,1.953-0.48,3.146-0.48c1.201,0,2.322,0.172,3.15,0.48c0.793,0.293,0.988,0.59,1.002,0.688v0.02
						c-0.014,0.1-0.209,0.393-1.002,0.688c-0.836,0.309-1.955,0.48-3.15,0.48c-1.201,0-2.32-0.172-3.146-0.48
						c-0.82-0.307-1.012-0.615-1.012-0.695C26.6,174.002,26.791,173.678,27.611,173.379z M26.6,175.607
						c0.172,0.092,0.375,0.178,0.598,0.264c0.959,0.359,2.225,0.555,3.561,0.555c1.34,0,2.605-0.195,3.562-0.555
						c0.225-0.086,0.42-0.172,0.596-0.264v0.736l0,0l0,0v0.006c-0.012,0.098-0.209,0.395-1.002,0.688
						c-0.834,0.309-1.955,0.479-3.148,0.479c-1.201,0-2.322-0.17-3.148-0.479c-0.82-0.309-1.01-0.617-1.01-0.693v-0.736H26.6z
						 M26.6,177.91c0.172,0.092,0.375,0.176,0.598,0.262c0.959,0.361,2.225,0.557,3.561,0.557c1.34,0,2.605-0.195,3.562-0.557
						c0.225-0.086,0.42-0.17,0.596-0.262v0.732l0,0l0,0v0.008c-0.012,0.1-0.209,0.395-1.002,0.688
						c-0.834,0.309-1.955,0.48-3.148,0.48c-1.201,0-2.322-0.172-3.148-0.48c-0.82-0.305-1.01-0.613-1.01-0.695v-0.732H26.6z"/>
				</g>
			</g>
			<g>
				<g>
					<path fill="#666666" d="M41.686,181.24c-0.959-0.359-2.225-0.555-3.561-0.555c-1.34,0-2.605,0.195-3.562,0.555
						c-1.463,0.545-1.771,1.279-1.771,1.805v2.27c0,0.008,0,0.018,0,0.027l0,0v2.268c0,0.006,0,0.021,0,0.027l0,0v0.025v2.244v0.027
						c0,0.516,0.309,1.252,1.771,1.801c0.957,0.361,2.223,0.559,3.562,0.559c1.336,0,2.602-0.197,3.561-0.559
						c1.463-0.543,1.771-1.279,1.771-1.801v-0.027l0,0v-2.232c0-0.012,0-0.025,0-0.037l0,0c0-0.006,0-0.021,0-0.027v-2.229
						c0-0.016,0-0.027,0-0.039l0,0c0-0.01,0-0.02,0-0.027v-2.232c0-0.01,0-0.021,0-0.037
						C43.463,182.525,43.156,181.793,41.686,181.24z M34.977,182.35c0.832-0.309,1.953-0.477,3.148-0.477
						c1.199,0,2.32,0.168,3.146,0.477c0.795,0.295,0.998,0.592,1.004,0.689v0.021c-0.012,0.098-0.209,0.391-1.004,0.688
						c-0.832,0.307-1.953,0.479-3.146,0.479c-1.201,0-2.322-0.172-3.148-0.479c-0.82-0.309-1.01-0.617-1.01-0.697
						C33.967,182.975,34.148,182.65,34.977,182.35z M41.279,190.613c-0.834,0.309-1.955,0.48-3.148,0.48
						c-1.201,0-2.322-0.172-3.148-0.48c-0.82-0.309-1.01-0.613-1.01-0.695v-0.732c0.17,0.09,0.373,0.174,0.596,0.262
						c0.957,0.361,2.223,0.557,3.562,0.557c1.338,0,2.604-0.195,3.561-0.557c0.223-0.088,0.42-0.172,0.598-0.262v0.732
						C42.283,190,42.098,190.305,41.279,190.613z M42.283,187.615L42.283,187.615v0.01c-0.014,0.098-0.211,0.391-1.004,0.688
						c-0.834,0.309-1.955,0.479-3.148,0.479c-1.201,0-2.322-0.17-3.148-0.479c-0.82-0.309-1.01-0.617-1.01-0.697v-0.732
						c0.17,0.092,0.373,0.178,0.596,0.26c0.957,0.363,2.223,0.559,3.562,0.559c1.338,0,2.604-0.195,3.561-0.559
						c0.223-0.082,0.42-0.168,0.598-0.26L42.283,187.615L42.283,187.615z M42.283,185.314L42.283,185.314v0.008
						c-0.014,0.096-0.211,0.391-1.004,0.688c-0.834,0.309-1.955,0.477-3.148,0.477c-1.201,0-2.322-0.168-3.148-0.477
						c-0.82-0.309-1.01-0.617-1.01-0.695v-0.736c0.17,0.092,0.373,0.178,0.596,0.266c0.957,0.357,2.223,0.555,3.562,0.555
						c1.338,0,2.604-0.197,3.561-0.555c0.223-0.088,0.42-0.174,0.598-0.266L42.283,185.314L42.283,185.314z"/>
				</g>
			</g>
			<path fill="#666666" d="M47.273,174.387c-2.107,0-3.811,1.707-3.811,3.811c0,2.105,1.703,3.812,3.811,3.812
				c2.105,0,3.811-1.707,3.811-3.812C51.084,176.094,49.379,174.387,47.273,174.387z"/>
		</g>
	</g>
	<g>
		<g>
			<polygon fill="#53936A" points="39.926,118.822 34.617,112.242 36.6,109.832 39.936,113.963 46.256,106.211 48.229,108.635 			
				"/>
		</g>
		<path fill="#666666" d="M50.422,102.33l1.424-2.01c0.258-0.367,0.172-0.871-0.193-1.129l-2.146-1.52
			c-0.365-0.258-0.869-0.172-1.129,0.193l-1.695,2.061C45.605,99.42,46,99.061,43,98.865v-0.838C43,97.492,43.914,96,44.449,96
			h0.539C45.523,96,46,96.615,46,96.078v-2.965C46,92.576,45.523,93,44.988,93h-7.131C37.322,93,36,92.576,36,93.113v2.965
			C36,96.615,37.322,96,37.857,96h0.539C38.934,96,40,97.492,40,98.027v0.838c-1,0.207-2.848,0.607-3.988,1.168l-1.603-2.037
			c-0.26-0.367-0.843-0.453-1.208-0.195l-2.185,1.52c-0.365,0.26-0.47,0.766-0.212,1.129l1.447,2.061
			c-2.357,2.354-3.827,5.607-3.827,9.195c0,7.172,5.832,13.004,13,13.004c7.17,0,13.003-5.832,13.003-13.004
			C54.428,108.023,52.889,104.699,50.422,102.33z M41.473,122.633c-6.104,0-11.053-4.949-11.053-11.053s4.949-11.053,11.053-11.053
			c6.105,0,11.055,4.949,11.055,11.053S47.578,122.633,41.473,122.633z"/>
	</g>
	<g>
		<g>
			<g>
				<polygon fill="#666666" points="44.393,226.535 46.326,226.535 46.326,222.941 33.357,222.941 27.906,227.584 27.906,245.773 
					33.367,245.773 33.367,244.143 29.838,244.143 29.838,229.363 35.434,229.363 35.434,224.572 44.393,224.572 				"/>
			</g>
		</g>
		<g>
			<g>
				<polygon fill="#53936A" points="44.1,248.832 40.129,243.91 41.611,242.107 44.107,245.197 48.834,239.398 50.311,241.211 				
					"/>
			</g>
			<path fill="#666666" d="M51.951,236.496l1.064-1.504c0.193-0.273,0.129-0.65-0.145-0.846l-1.605-1.135
				c-0.273-0.193-0.65-0.129-0.844,0.145l-0.967,1.541c-0.807-0.379-1.455-0.648-2.455-0.793v-0.627c0-0.4,0.082-1.277,0.484-1.277
				h0.402c0.4,0,0.113,0.221,0.113-0.182V229.6c0-0.4,0.287-0.6-0.113-0.6h-5.334c-0.4,0-0.553,0.199-0.553,0.6v2.219
				c0,0.402,0.152,0.182,0.553,0.182h0.402c0.402,0,1.045,0.877,1.045,1.277v0.627c0,0.154-2.051,0.453-2.906,0.873l-1.161-1.525
				c-0.193-0.273-0.608-0.338-0.882-0.145l-1.626,1.137c-0.271,0.193-0.347,0.572-0.151,0.846l1.084,1.539
				c-1.766,1.762-2.862,4.195-2.862,6.881c0,5.363,4.363,9.725,9.725,9.725c5.363,0,9.728-4.361,9.728-9.725
				C54.947,240.754,53.795,238.268,51.951,236.496z M45.258,251.684c-4.566,0-8.27-3.703-8.27-8.27s3.703-8.268,8.27-8.268
				s8.268,3.701,8.268,8.268S49.824,251.684,45.258,251.684z"/>
		</g>
	</g>
	<g>
		<rect x="30" y="353" fill="#666666" width="22" height="28"/>
		<rect x="34.068" y="362.848" fill="#FFFFFF" width="15.719" height="2.693"/>
		<rect x="34.068" y="368.23" fill="#FFFFFF" width="15.719" height="2.693"/>
		<rect x="34.068" y="373.617" fill="#FFFFFF" width="15.719" height="2.689"/>
	</g>
</g>
</svg>
